<svg width="103" height="103" viewBox="0 0 103 103" fill="none" xmlns="http://www.w3.org/2000/svg">
<circle cx="51.5" cy="51.5" r="51.5" fill="#D83C3C"/>
<path d="M50.7208 42.744C52.0008 40.824 52.6408 39.032 52.6408 37.368C52.6408 35.704 52.1714 34.3813 51.2328 33.4C50.2941 32.4187 49.0568 31.928 47.5208 31.928C45.9848 31.928 44.7474 32.312 43.8088 33.08C42.8701 33.8053 42.4008 34.9787 42.4008 36.6C42.4008 38.1787 43.5101 41.0373 45.7288 45.176C47.9474 49.3147 49.3554 51.9813 49.9528 53.176C51.5741 56.4187 52.3848 59.5547 52.3848 62.584C52.3848 66.3813 50.9981 69.4747 48.2248 71.864C45.4941 74.2107 42.2514 75.384 38.4968 75.384C34.7848 75.384 31.8621 74.232 29.7288 71.928C27.5954 69.5813 26.5288 66.8507 26.5288 63.736C26.5288 57.976 30.0914 53.2187 37.2168 49.464C34.3154 43.7467 32.8648 39.7573 32.8648 37.496C32.8648 34.3387 34.1234 31.672 36.6408 29.496C39.2008 27.2773 42.3154 26.168 45.9848 26.168C49.6968 26.168 52.5341 27.1067 54.4968 28.984C56.4594 30.8613 57.4408 33.2507 57.4408 36.152C57.4408 38.072 56.8008 40.2693 55.5208 42.744H50.7208ZM33.9528 67.704C35.1048 68.9413 36.4914 69.56 38.1128 69.56C39.7768 69.56 41.0568 69.0907 41.9528 68.152C42.8914 67.1707 43.3608 65.7413 43.3608 63.864C43.3608 62.1573 42.6994 60.0667 41.3768 57.592C41.2061 57.2507 40.8861 56.632 40.4167 55.736C39.9474 54.7973 39.6061 54.136 39.3928 53.752C34.6141 56.2267 32.2248 59.3413 32.2248 63.096C32.2248 65.016 32.8008 66.552 33.9528 67.704ZM62.1948 27.896C63.1761 26.872 64.3708 26.36 65.7788 26.36C67.1868 26.36 68.3814 26.872 69.3628 27.896C70.3868 28.8773 70.8988 30.072 70.8988 31.48C70.8988 32.888 70.3868 34.0827 69.3628 35.064C68.3814 36.0453 67.1868 36.536 65.7788 36.536C64.3708 36.536 63.1761 36.0453 62.1948 35.064C61.2134 34.0827 60.7228 32.888 60.7228 31.48C60.7228 30.072 61.2134 28.8773 62.1948 27.896ZM59.5708 46.648C59.9974 45.88 60.8081 45.304 62.0028 44.92C63.1974 44.4933 64.3708 44.28 65.5228 44.28C66.7174 44.28 67.7628 44.4293 68.6588 44.728C66.9948 57.5707 66.1628 64.056 66.1628 64.184C65.9494 65.0373 65.8428 65.7627 65.8428 66.36C65.8428 66.9147 65.8854 67.4053 65.9708 67.832C66.1414 68.9413 66.9094 69.496 68.2748 69.496C69.6828 69.496 70.9628 68.6 72.1147 66.808C73.3094 64.9733 74.2054 62.904 74.8028 60.6C75.1014 60.7707 75.5708 61.2827 76.2108 62.136C76.8508 62.9893 77.2348 63.6293 77.3628 64.056C76.5094 67.4693 75.0588 70.2213 73.0108 72.312C70.9628 74.4027 68.5094 75.448 65.6508 75.448C62.7921 75.448 60.6588 74.744 59.2508 73.336C57.8854 71.928 57.2028 70.1147 57.2028 67.896C57.2028 67.4267 57.2241 66.936 57.2668 66.424L59.5708 46.648Z" fill="white"/>
</svg>
